<?xml version="1.0" standalone="no"?>
<!DOCTYPE svg PUBLIC "-//W3C//DTD SVG 20010904//EN"
 "http://www.w3.org/TR/2001/REC-SVG-20010904/DTD/svg10.dtd">
<svg version="1.0" xmlns="http://www.w3.org/2000/svg"
 width="512.000000pt" height="512.000000pt" viewBox="0 0 512.000000 512.000000"
 preserveAspectRatio="xMidYMid meet">
<metadata>
Created by potrace 1.14, written by Peter Selinger 2001-2017
</metadata>
<g transform="translate(0.000000,512.000000) scale(0.100000,-0.100000)"
fill="#000000" stroke="none">
<path d="M840 3821 c-68 -22 -200 -82 -345 -156 -118 -61 -138 -75 -117 -82
29 -11 114 -83 146 -124 44 -56 78 -140 256 -629 105 -289 118 -326 136 -380
8 -25 19 -54 24 -65 4 -11 27 -72 50 -135 23 -63 50 -137 60 -165 158 -424
191 -500 259 -585 118 -148 253 -222 391 -215 44 2 126 23 257 64 253 80 395
129 407 141 12 12 -10 32 -64 60 -60 30 -118 87 -145 140 -23 46 -143 371
-320 865 -171 478 -300 811 -367 950 -68 141 -181 247 -325 302 -90 34 -222
40 -303 14z"/>
<path d="M2224 3820 c-75 -19 -229 -85 -408 -174 l-109 -54 61 -31 c93 -47
137 -114 234 -355 39 -99 177 -475 217 -592 11 -32 38 -111 61 -174 22 -63 50
-142 61 -175 24 -70 107 -301 119 -330 4 -11 23 -58 40 -105 78 -204 118 -270
238 -390 168 -168 267 -190 523 -112 161 49 449 150 466 164 15 12 5 38 -15
38 -22 0 -92 36 -124 63 -33 28 -77 123 -164 347 -158 412 -349 938 -476 1315
-42 125 -116 278 -171 352 -69 93 -187 178 -302 217 -47 17 -181 15 -251 -4z"/>
<path d="M3585 3821 c-71 -21 -277 -111 -411 -180 l-96 -49 61 -36 c126 -77
178 -172 321 -591 234 -683 383 -1083 481 -1293 21 -46 39 -86 39 -88 0 -3 19
-31 42 -62 85 -117 193 -198 297 -225 70 -18 164 -6 316 39 66 20 127 37 135
39 8 2 71 23 140 48 201 71 242 97 164 104 -88 7 -183 122 -248 298 -20 55
-40 107 -43 115 -3 8 -7 17 -7 20 -1 3 -7 19 -13 35 -7 17 -34 93 -62 170 -27
77 -70 197 -95 268 -25 70 -66 184 -91 255 -25 70 -52 143 -60 162 -7 19 -36
96 -63 170 -70 188 -186 478 -215 537 -52 102 -188 212 -315 254 -87 29 -197
33 -277 10z"/>
<path d="M145 3277 c-47 -15 -93 -55 -116 -98 -40 -79 -35 -184 12 -243 56
-71 171 -86 242 -32 41 32 87 116 87 160 0 77 -106 208 -178 220 -9 2 -30 -1
-47 -7z"/>
<path d="M400 2461 c-42 -13 -153 -71 -190 -99 -64 -48 -112 -106 -145 -177
-44 -95 -58 -168 -59 -310 0 -179 27 -268 115 -380 59 -76 98 -108 173 -147
106 -54 257 -72 366 -43 73 20 112 40 166 85 l51 44 -32 90 c-18 50 -56 156
-85 236 -152 425 -229 621 -264 673 -23 34 -51 42 -96 28z"/>
</g>
</svg>
