<svg width="34" height="32" viewBox="0 0 34 32" fill="none" xmlns="http://www.w3.org/2000/svg">
<g clip-path="url(#clip0)">
<path d="M1.54424 16.2667L1.43251 16.2134C1.18113 16.0801 0.985616 15.8801 0.845961 15.6267C0.650443 15.2801 0.56665 14.9601 0.56665 14.6267L0.594581 14.4534C0.594581 14.1867 0.664409 13.9467 0.790099 13.7201L0.901823 13.5201C0.957685 13.4134 1.04148 13.3201 1.11131 13.2267C1.1951 13.1334 1.20906 13.0134 1.18113 12.9067L1.11131 12.6934C1.02751 12.4267 0.97165 12.1601 0.97165 11.8934L0.929754 11.7334C0.929754 11.4401 1.01355 11.1467 1.20906 10.9334L1.34872 10.7601C1.44648 10.6267 1.6001 10.5467 1.76768 10.4934C1.90734 10.4534 2.0051 10.3201 2.01906 10.1601L2.047 9.70675C2.047 9.34675 2.22855 9.01342 2.50786 8.77341L2.84303 8.53341C2.91286 8.46675 2.98269 8.40008 3.03855 8.29342C3.10837 8.21342 3.12234 8.10675 3.10837 8.02675C3.08044 7.89341 3.10837 7.85342 3.1782 7.84008C3.40165 7.92008 3.54131 7.89341 3.63906 7.78675L3.82062 7.56008L4.32337 7.02675C4.46303 6.89341 4.51889 6.65341 4.4351 6.46675L4.26751 6.12008C4.23958 6.04008 4.26751 5.94675 4.33734 5.92008C4.51889 5.92008 4.64458 5.98675 4.70044 6.09342L4.75631 6.18675C4.8401 6.34675 5.03562 6.42675 5.17527 6.36008C5.48251 6.25342 5.73389 6.22675 5.97131 6.22675H6.4182C6.72544 6.22675 6.97682 6.02675 7.03269 5.72008C7.08855 5.34675 7.2282 5.05341 7.42372 4.85342C7.6332 4.62675 7.87062 4.45341 8.14993 4.32008C8.51303 4.13341 8.73648 3.86675 8.80631 3.52008C8.90406 3.09342 9.14148 2.78675 9.46268 2.58675L10.5241 2.01341L10.8313 1.84008C11.0129 1.73341 11.1804 1.60008 11.3201 1.44008L11.5994 1.12008C11.7391 0.986748 11.8787 0.893415 12.0463 0.853415C12.186 0.813415 12.3815 0.786748 12.5491 0.800081L13.1077 0.840081C13.387 0.840081 13.6104 0.906748 13.8339 1.00008L13.9735 1.06675C14.1132 1.12008 14.2529 1.09341 14.3227 1.00008L14.4484 0.933415L15.0489 0.333415C15.1885 0.200081 15.3561 0.146748 15.5377 0.173415C15.7192 0.200081 15.9008 0.266748 16.0684 0.346748C16.3198 0.480081 16.5292 0.533415 16.7666 0.533415H16.9063C17.2135 0.533415 17.5208 0.573415 17.828 0.640081L18.0375 0.693415C18.247 0.746748 18.4565 0.666748 18.5961 0.506748C18.638 0.440081 18.7358 0.426748 18.7916 0.480081C18.8335 0.506748 18.8475 0.533415 18.8615 0.573415C18.8894 0.840081 19.057 1.04008 19.2804 1.10675L19.5039 1.17341C19.7413 1.24008 19.9508 1.38675 20.0904 1.57341C20.2301 1.77341 20.3977 1.97341 20.5932 2.10675L20.7329 2.24008C20.8725 2.37341 21.068 2.42675 21.2635 2.41341H22.0875C22.4227 2.41341 22.7439 2.46675 23.0651 2.60008C23.3723 2.73341 23.6935 2.76008 23.9868 2.65341C24.2941 2.56008 24.6153 2.52008 24.9365 2.56008L25.537 2.65341C25.8163 2.68008 26.0956 2.81341 26.2632 3.01341L26.333 3.08008C26.4727 3.21341 26.6123 3.38675 26.752 3.57341C26.8358 3.74675 27.0313 3.84008 27.2268 3.84008H28.0927C28.3022 3.84008 28.5117 3.88008 28.6792 3.97341C28.8608 4.10675 29.0144 4.24008 29.1541 4.37341L29.2937 4.54675C29.4613 4.73342 29.5451 4.98675 29.5311 5.25342C29.5311 5.46675 29.6987 5.65341 29.9222 5.65341L30.2015 5.68008C30.397 5.68008 30.5646 5.81341 30.6623 5.98675L30.802 6.25342L31.1651 7.02675C31.221 7.16008 31.2349 7.29342 31.221 7.40008C31.221 7.53342 31.2629 7.64008 31.3606 7.69341L31.5003 7.78675C31.6818 7.92008 31.7796 8.12008 31.7516 8.34675L31.6539 8.97342L31.626 9.24008C31.598 9.37341 31.6679 9.54675 31.7935 9.64008C32.003 9.77341 32.1008 9.94675 32.1148 10.1467V10.4134C32.1148 10.5467 32.0868 10.7067 31.9751 10.8134C31.8913 10.9201 31.8354 11.0534 31.8354 11.2134L31.8773 11.5201C31.8773 11.7334 32.017 11.9201 32.1567 12.0534C32.3522 12.1867 32.4639 12.4001 32.4918 12.6134C32.5477 12.9467 32.5616 13.2134 32.5616 13.4801V13.7867C32.5616 13.8934 32.5617 14.0001 32.6035 14.1067C32.6315 14.2001 32.7013 14.2934 32.7851 14.3467L33.0644 14.5467C33.3437 14.7201 33.5392 14.9467 33.651 15.2534C33.7906 15.5467 33.8325 15.8534 33.8325 16.1601V16.2667C33.8325 16.5067 33.8046 16.7601 33.7208 16.9867C33.651 17.2267 33.6649 17.4534 33.7627 17.6534C33.8744 17.8401 33.9442 18.0534 33.9722 18.2801C34.028 18.5467 34.0001 18.8134 33.9023 19.0267L33.8744 19.1201C33.8046 19.2801 33.6929 19.4267 33.5532 19.5467C33.4135 19.6801 33.2739 19.7601 33.1901 19.8534C33.1063 19.9334 33.0504 20.0667 33.0923 20.1867L33.1342 20.3734C33.2041 20.6401 33.2041 20.9067 33.1342 21.1467V21.2534C33.0784 21.4534 32.9946 21.6267 32.9108 21.7867C32.813 21.9601 32.6734 22.0934 32.4918 22.1867L32.2823 22.3201C32.1846 22.3734 32.1148 22.4934 32.1148 22.6134C32.1148 22.7467 32.0589 22.8801 31.9751 22.9601L31.7656 23.2267C31.626 23.4001 31.4444 23.5467 31.2489 23.6267C31.0534 23.7601 30.8858 23.8934 30.7601 24.0267C30.6204 24.1867 30.5087 24.3734 30.4529 24.5601C30.397 24.8001 30.2015 24.9334 29.992 24.9334H29.2379C29.0423 24.9334 28.8608 25.0667 28.777 25.2267C28.6792 25.4401 28.5815 25.5868 28.4558 25.7201C28.3161 25.8534 28.2323 26.0134 28.1765 26.2001C28.1485 26.3601 28.0089 26.4667 27.8692 26.4134C27.6877 26.3334 27.5061 26.4134 27.4223 26.5467C27.2548 26.8134 27.0872 27.0134 26.9056 27.1867L26.8079 27.2668C26.6263 27.4001 26.3889 27.5067 26.1794 27.5067C25.928 27.5067 25.8023 27.6134 25.7604 27.7734C25.7185 27.9067 25.6906 28.0801 25.6767 28.2267C25.6487 28.3867 25.5929 28.5334 25.537 28.6667L25.4672 28.7467C25.3275 28.9467 25.2158 29.1467 25.0761 29.3201L25.0203 29.4001C24.8387 29.6267 24.6013 29.8001 24.322 29.8667C23.9868 29.9734 23.6935 30.0001 23.4003 30.0001H23.2048C23.0651 30.0001 22.9254 30.0801 22.8277 30.2134L22.7439 30.3467L22.6601 30.5067L22.4785 30.8001C22.3389 31.0401 22.1294 31.2001 21.8501 31.2801C21.5708 31.3467 21.2496 31.3734 20.9563 31.3601L20.7329 31.3334C20.5373 31.3334 20.3558 31.2801 20.1742 31.2001C20.0346 31.1467 19.8391 31.2001 19.7553 31.3334C19.6156 31.5201 19.448 31.6267 19.2665 31.6801L18.8475 31.8134C18.5682 31.8801 18.261 31.8801 17.9677 31.8134L17.7442 31.7467C17.6046 31.7467 17.4649 31.6801 17.3532 31.6134C17.2135 31.5467 17.0739 31.5201 16.9342 31.5334L16.7527 31.5601C16.4734 31.5868 16.222 31.5601 15.9706 31.4934L15.5935 31.4134C15.426 31.3601 15.2723 31.2534 15.1746 31.1067C15.1048 30.9734 14.9511 30.8667 14.7556 30.8401H14.3087C14.0294 30.8001 13.778 30.7067 13.6104 30.5067L13.0518 30.0001L12.8563 29.8401L12.5491 29.6267L12.3675 29.4934C12.158 29.3601 11.9067 29.2534 11.6413 29.2267L10.8034 29.0934C10.7196 29.0934 10.6637 29.0667 10.5799 29.0534L10.2587 28.9867C10.1191 28.9601 9.97941 28.8534 9.88165 28.7201C9.79786 28.5868 9.64424 28.5334 9.50458 28.5868C9.22527 28.6934 9.00182 28.7201 8.77837 28.7601H8.58286C8.21975 28.7867 7.88458 28.7334 7.54941 28.5868C7.21424 28.4534 6.99079 28.2534 6.78131 28.0001C6.61372 27.7734 6.36234 27.6001 6.0551 27.5467L5.66406 27.4667C5.38475 27.4134 5.10544 27.3067 4.85406 27.1467C4.57475 26.9601 4.4351 26.7867 4.32337 26.5734C4.21165 26.3734 4.14182 26.1467 4.12786 25.9067V25.8001C4.09993 25.5334 3.90441 25.2934 3.63906 25.2267C3.31786 25.1334 3.08044 25.0001 2.87096 24.8267C2.67544 24.6534 2.56372 24.4001 2.56372 24.1334L2.59165 23.5467C2.59165 23.3201 2.52182 23.1201 2.35424 22.9734C2.18665 22.8134 2.07493 22.6134 2.07493 22.4001L2.03303 21.9201C2.0051 21.5734 1.93527 21.2267 1.85148 20.8801C1.76768 20.5734 1.89337 20.2667 2.15872 20.1201L2.25648 20.0534C2.39613 19.9601 2.452 19.7867 2.3682 19.6267L2.25648 19.4934C2.11682 19.3601 1.97717 19.2667 1.83751 19.2267C1.72579 19.2001 1.69786 19.0934 1.69786 19.0267L1.83751 18.8667C1.92131 18.7734 1.90734 18.6267 1.83751 18.5467C1.72579 18.4401 1.66993 18.3067 1.65596 18.1734L1.62803 17.2401C1.62803 17.0534 1.65596 16.8667 1.71182 16.6801C1.76768 16.5201 1.71182 16.3334 1.54424 16.2534V16.2667ZM15.3701 14.5067C15.4679 14.4134 15.4539 14.2401 15.3701 14.1734C15.2304 14.0667 15.1327 13.9467 15.0489 13.8134L14.9092 13.6001C14.8115 13.4267 14.6858 13.2801 14.5461 13.1467L14.5182 13.1201C14.3785 13.0134 14.2808 12.8801 14.197 12.7201C14.1272 12.5867 14.1272 12.4534 14.197 12.3201L14.2808 12.1867C14.3646 12.0534 14.4204 11.8667 14.4204 11.7067V11.6534C14.4204 11.5201 14.3646 11.3867 14.2808 11.2534C14.2249 11.1467 14.1691 11.0134 14.1411 10.8801V10.8001C14.0992 10.6401 14.1411 10.4667 14.2529 10.3334C14.3646 10.1601 14.4484 10.0001 14.4903 9.80008V9.77341C14.5461 9.64008 14.5182 9.46675 14.4344 9.33342C14.3506 9.20008 14.3227 9.06675 14.3785 8.90675L14.4763 8.64008C14.5601 8.40008 14.6858 8.18675 14.8534 8.00008L15.0489 7.80008L15.1885 7.64008L15.2723 7.56008C15.3561 7.48008 15.3701 7.34675 15.3003 7.24008C15.2304 7.10675 15.1885 6.97341 15.2165 6.84008L15.2444 6.65341C15.2863 6.38675 15.3841 6.12008 15.5656 5.90675L15.6215 5.85341C15.831 5.58675 16.0963 5.41341 16.4035 5.32008L16.7806 5.18675C16.9482 5.13342 17.0599 4.96008 17.0599 4.78675C17.0599 4.57341 17.1298 4.38675 17.2554 4.21342L17.3253 4.14675C17.4649 3.92008 17.6325 3.69341 17.7442 3.45341L17.842 3.28008C17.8699 3.24008 17.8839 3.18675 17.8839 3.14675C17.8839 2.92008 17.7442 2.72008 17.5208 2.70675L16.9063 2.66675C16.5572 2.64008 16.208 2.66675 15.8729 2.66675L14.6858 2.80008C14.5042 2.80008 14.3646 2.93341 14.3506 3.12008C14.3506 3.30675 14.211 3.46675 14.0434 3.52008L13.5406 3.65341L13.401 3.69341L12.982 3.82675C12.6748 3.92008 12.4234 4.13341 12.2837 4.42675L12.172 4.60008C12.0323 4.89341 11.7949 5.13341 11.5016 5.30675C11.2223 5.48008 11.0827 5.76008 11.0548 6.08008V6.21341C11.0268 6.48008 10.943 6.74675 10.7754 6.93341L10.7056 7.04008C10.5939 7.17342 10.566 7.34675 10.6358 7.49341C10.7056 7.65341 10.7475 7.82675 10.7335 8.00008V8.70675C10.7335 8.89342 10.5939 9.05342 10.4542 9.10675C10.2587 9.17342 10.133 9.32008 10.0772 9.50675L10.0073 9.77341C9.95148 10.0401 10.0492 10.3067 10.2867 10.4667C10.5101 10.6267 10.6498 10.8667 10.7056 11.1601V11.4001C10.7475 11.6667 10.9011 11.9334 11.1525 12.0667C11.4039 12.2267 11.5994 12.4667 11.7111 12.7334L11.781 12.9467C11.8927 13.2401 12.1441 13.4134 12.4234 13.4401H12.5072C12.7585 13.4401 12.982 13.5734 13.1216 13.7867C13.2613 14.0001 13.4848 14.1467 13.7361 14.1867L14.1272 14.2934C14.3646 14.3601 14.588 14.4801 14.7696 14.6534L14.7975 14.6801C14.9372 14.7867 15.1606 14.7734 15.2863 14.6267L15.3841 14.5201L15.3701 14.5067ZM16.9622 13.2801C17.1018 13.3601 17.2415 13.3201 17.2973 13.2001L17.3392 13.1334C17.437 12.9467 17.5627 12.7601 17.7023 12.6001L17.9816 12.2001C18.0235 12.2001 18.0375 12.1734 18.0515 12.1467L18.3867 11.7201C18.5263 11.5867 18.6939 11.4934 18.8894 11.4934C19.071 11.4934 19.2246 11.4001 19.3084 11.2267C19.3642 11.0401 19.448 10.8667 19.6156 10.7201L19.6854 10.6401C19.8251 10.5067 19.9648 10.4401 20.1044 10.3734C20.286 10.3467 20.4535 10.3201 20.6211 10.3201H21.0401C21.2077 10.3201 21.3473 10.2534 21.4311 10.1201C21.5149 9.98675 21.6406 9.89341 21.7803 9.82675L21.9199 9.77341C22.1434 9.68008 22.3948 9.61341 22.6461 9.58675L22.9254 9.56008C23.093 9.56008 23.2746 9.56008 23.4422 9.65341C23.5818 9.74675 23.7634 9.73341 23.903 9.62675L24.0008 9.57341C24.2103 9.44008 24.4477 9.33342 24.6991 9.30675H24.727C25.0063 9.25342 25.2577 9.25342 25.537 9.26675H25.6767C25.956 9.30675 26.1934 9.40008 26.3749 9.60008L26.4168 9.65341C26.5565 9.78675 26.7799 9.89342 26.9754 9.89342H27.2129C27.2827 9.89342 27.3525 9.86675 27.3944 9.80008C27.4363 9.76008 27.5061 9.72008 27.576 9.72008H27.7156C27.9111 9.72008 28.0927 9.77341 28.2742 9.82675L28.5117 9.92008C28.7351 9.98675 28.9725 10.0534 29.2099 10.0801H29.3775C29.4892 10.0801 29.5591 10.0134 29.5591 9.92008C29.5591 9.78675 29.5311 9.65341 29.4613 9.54675L29.3635 9.33342C29.2518 9.16008 29.168 8.97341 29.0842 8.80008L29.0563 8.73342C28.9865 8.60008 28.9865 8.46675 29.0563 8.33342V8.26675C29.0842 8.16008 29.0284 8.04008 28.9167 8.00008H28.8049C28.5815 7.93341 28.386 7.81342 28.2463 7.64008L28.1067 7.50675C27.967 7.37341 27.8832 7.17342 27.8273 6.97341C27.7575 6.80008 27.6039 6.66675 27.4084 6.66675H26.8218C26.6123 6.64008 26.4308 6.53342 26.3051 6.37341L26.2492 6.30675C26.1515 6.17341 26.0677 6.01341 26.0118 5.85341C25.942 5.72008 25.7884 5.64008 25.6487 5.68008L25.4811 5.73342C25.2018 5.82675 24.9225 5.86675 24.6432 5.84008L24.4198 5.81342C24.1823 5.81342 23.9589 5.72008 23.7773 5.58675L23.6377 5.49341C23.526 5.41341 23.4142 5.36008 23.2885 5.30675C23.1489 5.25342 23.0372 5.28008 22.9534 5.37341L22.8835 5.45341C22.7439 5.58675 22.5484 5.69341 22.3529 5.72008L21.5987 5.76008C21.4591 5.76008 21.3194 5.82675 21.2217 5.92008C21.1099 6.01341 20.9842 6.08008 20.8446 6.10675H20.8167C20.677 6.10675 20.5373 6.20008 20.3977 6.29341V6.32008C20.258 6.45341 20.0765 6.52008 19.8949 6.52008L19.8391 6.54675C19.6715 6.54675 19.5039 6.54675 19.3363 6.58675H19.1687C18.9313 6.62675 18.7498 6.81342 18.6939 7.05341L18.638 7.36008C18.5961 7.57341 18.4984 7.76008 18.3587 7.93341C18.2191 8.09341 18.0515 8.20008 17.842 8.20008H17.6325H17.6046C17.4649 8.22675 17.3253 8.37341 17.3532 8.53341C17.3811 8.76008 17.3532 8.96008 17.3113 9.16008L17.2554 9.38675C17.1996 9.58675 17.0599 9.74675 16.8784 9.81342L16.7946 9.85341H16.7666C16.6829 9.90675 16.627 10.0267 16.6968 10.1201C16.7806 10.2534 16.8085 10.3867 16.7946 10.5201L16.7527 10.9467C16.7527 11.1067 16.6829 11.2534 16.613 11.3867C16.5292 11.5201 16.5292 11.6534 16.5851 11.7867L16.7248 12.0801C16.7946 12.2134 16.8085 12.3467 16.7666 12.5067C16.7248 12.6401 16.6968 12.7734 16.7108 12.9067C16.7108 13.0401 16.7946 13.1734 16.9063 13.2267L16.9342 13.2534L16.9622 13.2801ZM27.9949 22.9201C28.1346 23.0534 28.3441 23.1067 28.5117 23.0001L28.791 22.8267C28.9306 22.7334 29.0423 22.6001 29.0982 22.4267V22.4001L29.2379 22.0001L29.3217 21.8667L29.3775 21.7334L29.4334 21.6401C29.4892 21.5334 29.573 21.4534 29.7127 21.4134L29.7685 21.3867C29.8803 21.3601 29.9501 21.2534 29.9501 21.1467C29.9501 21.0134 30.0199 20.9067 30.0898 20.8134L30.2015 20.7201L30.4808 20.3734V20.3467C30.5646 20.2401 30.6204 20.1201 30.6484 19.9867C30.6763 19.8534 30.6484 19.7201 30.5925 19.5867L30.5646 19.5334C30.5087 19.4001 30.4808 19.3067 30.4668 19.1867L30.4249 18.8134L30.383 18.4134C30.383 18.2801 30.4389 18.1467 30.5227 18.0134C30.6204 17.9067 30.6903 17.7734 30.7461 17.6401V17.5867L30.7741 17.5601C30.802 17.4267 30.7322 17.2934 30.6065 17.2934C30.4668 17.2267 30.3272 17.1201 30.2853 16.9601L30.2434 16.8801C30.1735 16.6401 30.1317 16.4001 30.1317 16.1601L30.1596 15.4934V15.4534C30.1596 15.2267 29.9641 15.0534 29.7406 15.0534H29.7127C29.4334 15.0534 29.2099 14.9734 29.0144 14.7867L28.9027 14.6534L28.6234 14.3467L28.2603 13.9467C28.1206 13.7601 27.981 13.6001 27.7994 13.4401C27.6598 13.3067 27.4503 13.1734 27.2408 13.1467L26.9615 13.1067C26.8218 13.0801 26.6403 13.0134 26.4867 12.9201C26.3749 12.8401 26.2073 12.8667 26.0956 12.9734L25.9141 13.1601L25.8303 13.2134C25.7325 13.2401 25.6348 13.1867 25.5929 13.0801C25.537 12.9201 25.537 12.7334 25.6208 12.5734V12.4934C25.6208 12.4001 25.537 12.3334 25.4532 12.3601H25.2298C24.9784 12.3601 24.727 12.3334 24.4896 12.2267L24.3499 12.1734C24.2103 12.1067 24.0427 12.0667 23.8891 12.0667C23.7494 12.0667 23.6098 12.0934 23.4701 12.1734L23.4142 12.2134C23.2467 12.3201 23.0511 12.3734 22.8556 12.3867H22.3948C22.1853 12.3867 21.9758 12.4534 21.8361 12.5601C21.6546 12.6667 21.4591 12.7334 21.2496 12.7734L20.8725 12.8267C20.7049 12.8667 20.5234 12.9334 20.3698 13.0534C20.2301 13.1867 20.0346 13.2667 19.853 13.3201L19.7832 13.3467C19.5598 13.4134 19.3642 13.5467 19.2246 13.7467L19.057 13.9067C18.9592 14.0401 18.9592 14.2001 19.057 14.3334C19.1408 14.4667 19.3084 14.5067 19.476 14.4667L19.6854 14.3867C19.7972 14.3467 19.9229 14.3867 20.0206 14.4401C20.1044 14.5067 20.2301 14.5467 20.3558 14.5334L20.7049 14.4934C20.9004 14.4934 21.096 14.4934 21.2915 14.5467C21.501 14.6134 21.6825 14.6801 21.8501 14.8134C22.0177 14.9467 22.1992 15.0001 22.4087 15.0267C22.6182 15.0534 22.8277 15.0934 23.0232 15.1601L23.1629 15.1867C23.3025 15.2267 23.4142 15.3201 23.498 15.4534C23.5679 15.5601 23.6377 15.7201 23.6377 15.8534V15.8934C23.6377 16.0534 23.7773 16.1601 23.917 16.1601H24.0008C24.2242 16.1601 24.4617 16.1867 24.6991 16.2534L24.7968 16.2934C24.9365 16.3467 25.0761 16.4267 25.1739 16.5601C25.2856 16.6934 25.3554 16.8267 25.3973 16.9601L25.4392 17.1467C25.4811 17.3467 25.4951 17.5467 25.4951 17.7601V17.8267C25.4951 17.9601 25.5929 18.0934 25.7465 18.1467C25.8861 18.1734 26.0537 18.2267 26.2073 18.3067L26.2772 18.3334C26.4587 18.4401 26.6403 18.5734 26.7799 18.7334L26.8498 18.8267C27.0313 19.0267 27.1291 19.2801 27.1291 19.5334V19.6267C27.1291 19.8267 27.0872 20.0267 27.0173 20.2134C26.9615 20.3734 27.0173 20.5601 27.1989 20.6134L27.2967 20.6801C27.5061 20.7601 27.6877 20.9067 27.8273 21.0801C27.967 21.2801 28.0229 21.5067 28.0229 21.7467V22.1467C27.9949 22.2801 27.953 22.3867 27.8832 22.4801C27.8134 22.5734 27.8134 22.7067 27.8832 22.8001L27.967 22.9334L27.9949 22.9201ZM19.057 16.0934H19.0291C18.9732 16.0934 18.9453 16.1601 18.9592 16.2267L19.0151 16.4934C19.071 16.7067 19.0989 16.9201 19.1268 17.1334C19.1548 17.3467 19.2665 17.5334 19.4341 17.6667H19.4899C19.6994 17.8267 19.8251 18.0667 19.8391 18.3067V18.9734C19.8111 19.1067 19.8391 19.2401 19.9229 19.3467L19.9927 19.4134C20.1323 19.5734 20.1882 19.7601 20.2022 19.9467L20.2441 20.6801C20.2441 20.8534 20.1323 21.0001 19.9648 21.0267L19.8251 21.0534C19.7273 21.0534 19.6854 21.1601 19.6854 21.2534C19.6854 21.3601 19.7273 21.4801 19.7692 21.5868V21.6134C19.8111 21.7467 19.8251 21.8801 19.8111 22.0134L19.7553 22.3734C19.6994 22.6401 19.6156 22.8801 19.476 23.1201L19.3782 23.2801C19.3084 23.4134 19.2106 23.4934 19.0989 23.5467C18.9592 23.6001 18.8615 23.7067 18.8196 23.8401L18.7079 24.3201C18.638 24.5867 18.5123 24.8534 18.3448 25.1201H18.3168C18.1492 25.3334 17.9398 25.5201 17.6884 25.6534L17.5208 25.7601L17.1018 25.9601C16.9622 26.0134 16.8784 26.1334 16.8504 26.2801L16.7806 26.7201C16.7387 26.9867 16.641 27.2134 16.4454 27.3867L16.2639 27.5868L16.0544 27.7867L15.8449 28.0001C15.6773 28.1867 15.426 28.2667 15.1467 28.2267L14.6439 28.1334L14.183 28.0801H14.0573C14.0015 28.1334 13.9875 28.2134 14.0294 28.2934C14.1272 28.4534 14.2808 28.5601 14.4484 28.5601L14.7556 28.6134C14.8953 28.6134 15.0629 28.6801 15.2025 28.7467C15.3422 28.8401 15.4818 28.9067 15.6494 28.9467H15.6773C15.8589 29.0134 16.0544 29.0267 16.236 29.0134L16.4454 28.9867C16.6829 28.9601 16.9063 28.9867 17.1018 29.0667L17.2694 29.1201C17.3392 29.1467 17.451 29.1201 17.5208 29.0534C17.6046 28.9734 17.6884 28.9201 17.8001 28.8801L17.9118 28.8534C18.0934 28.8001 18.2749 28.7734 18.4704 28.7734H18.5822C18.7498 28.7734 18.9034 28.8001 19.043 28.8801L19.0989 28.9067C19.1966 28.9467 19.3084 28.9067 19.3782 28.8267C19.4201 28.7334 19.5179 28.6401 19.6156 28.5601L19.9648 28.3334L20.1882 28.2001L20.2999 28.1334C20.4396 28.0401 20.6351 28.0001 20.8027 28.0001L21.3054 27.9601C21.501 27.9334 21.6685 27.8001 21.7244 27.6134C21.7803 27.4134 21.8641 27.2134 22.0037 27.0401C22.1434 26.8668 22.283 26.7201 22.4227 26.5868C22.6042 26.4534 22.7858 26.3867 22.9813 26.3734H23.093C23.3165 26.3334 23.4841 26.1334 23.4701 25.9201V25.8934V25.0267C23.498 24.8934 23.5539 24.7201 23.6377 24.5868L23.917 24.1867L24.0287 24.0534C24.1125 23.9867 24.1684 23.8934 24.2661 23.7867L24.4058 23.6134C24.4896 23.4801 24.4896 23.3067 24.3779 23.1867C24.2382 23.0534 24.1684 22.8667 24.1404 22.6801V22.6267C24.1125 22.4134 24.1125 22.1867 24.1823 21.9601V21.8934C24.2522 21.7201 24.3499 21.5467 24.4617 21.3867C24.5734 21.2534 24.5594 21.0667 24.4198 20.9601L24.1823 20.7601C23.9868 20.6001 23.8751 20.3601 23.8472 20.1201L23.8192 19.8534C23.8192 19.7734 23.8192 19.6801 23.7913 19.5867L23.7634 19.3867C23.7354 19.1601 23.5958 18.9867 23.4003 18.8534L23.3025 18.8267C23.1629 18.7467 23.0232 18.6267 22.9115 18.4667C22.7998 18.3334 22.7439 18.1467 22.702 17.9601L22.6601 17.7334C22.6601 17.6534 22.6042 17.6001 22.5204 17.5601L22.297 17.4934L21.8501 17.3601C21.7104 17.3334 21.5708 17.2267 21.473 17.1334H21.4451C21.3613 17.0267 21.2216 17.0267 21.1379 17.1067L20.9982 17.2401C20.9703 17.2801 20.9423 17.2934 20.9004 17.2801C20.8167 17.2801 20.7608 17.2134 20.7887 17.1467C20.8167 16.9334 20.7329 16.7201 20.5513 16.5867L20.3698 16.4534L19.9508 16.1867C19.8391 16.1467 19.6715 16.1867 19.6156 16.3201L19.5598 16.4001C19.5598 16.4267 19.5179 16.4401 19.5039 16.4534C19.448 16.4534 19.3642 16.4534 19.3642 16.3867L19.3223 16.3201C19.2804 16.2401 19.1827 16.1867 19.0989 16.1601L19.057 16.0934ZM17.3811 17.4267L17.3113 17.3601C17.2415 17.3067 17.1716 17.3201 17.1018 17.3867C17.0041 17.5467 16.9203 17.7201 16.8784 17.8934V17.9201C16.8365 18.0934 16.6689 18.2134 16.5013 18.1867H16.3616H16.3337C16.1382 18.1867 15.9846 18.3467 15.9846 18.5334C15.9846 18.7734 15.9008 19.0134 15.7472 19.2001L15.6634 19.2801C15.5237 19.4534 15.3142 19.5734 15.1048 19.6401L14.993 19.6667C14.8534 19.7067 14.7416 19.8001 14.7137 19.9601C14.7137 20.0934 14.6299 20.2267 14.5182 20.3334L14.3785 20.4401C14.211 20.6134 13.9596 20.7067 13.7082 20.7334L13.0099 20.8001C12.7865 20.8001 12.591 20.9334 12.4513 21.1334C12.3116 21.3334 12.1022 21.4667 11.8927 21.4934L11.5854 21.5201C11.362 21.5467 11.1246 21.5467 10.8872 21.4934L10.7475 21.4667L10.3704 21.3734C10.2308 21.3334 10.1191 21.3734 10.0353 21.4667L9.89562 21.6401C9.71406 21.8401 9.44872 21.9334 9.19734 21.9067L8.28958 21.8001C8.14993 21.8001 8.0382 21.7334 7.91251 21.6667C7.77286 21.5867 7.6751 21.4934 7.57734 21.4001L7.2282 21.0001C7.18631 20.9734 7.11648 20.9601 7.04665 20.9734L6.85113 21.0534L6.06906 21.2401C5.92941 21.2801 5.74786 21.2401 5.6082 21.1601C5.46855 21.0534 5.30096 21.0267 5.13337 21.0267H4.95182C4.78424 21.0667 4.67251 21.2401 4.72837 21.4001L4.78424 21.6667C4.82613 21.8001 4.81217 21.9601 4.74234 22.0934C4.67251 22.2267 4.68648 22.3601 4.78424 22.4934L4.86803 22.6001C4.97975 22.7601 5.14734 22.8934 5.287 23.0267C5.42665 23.1601 5.56631 23.2934 5.67803 23.4667L5.88751 23.8267C5.99924 24.0134 6.16682 24.1201 6.39027 24.1201C6.59975 24.1201 6.80924 24.1867 6.97682 24.3201L7.39579 24.6934C7.50751 24.7867 7.6751 24.8001 7.78682 24.7201L7.85665 24.6934C7.94044 24.6934 7.99631 24.7467 7.99631 24.8267V24.8934C7.99631 25.0667 8.13596 25.2267 8.31751 25.2934L8.94596 25.4267C9.16941 25.4934 9.39286 25.5601 9.60234 25.6934H9.71406C9.82579 25.6934 9.92355 25.6001 9.90958 25.4801V25.0134C9.90958 24.8801 9.96544 24.7467 10.0772 24.6934L10.147 24.6667C10.2168 24.6934 10.2867 24.7467 10.2587 24.8001V25.0267C10.2587 25.2001 10.3146 25.3601 10.4403 25.4801C10.5799 25.6134 10.7615 25.6401 10.9151 25.5868C11.0827 25.5201 11.2503 25.5067 11.4318 25.5201L11.9485 25.5467C12.1999 25.5734 12.4373 25.5467 12.6468 25.4534C12.8982 25.3734 13.1077 25.2667 13.3032 25.1201L13.387 25.0667L13.806 24.7067C13.9456 24.5734 14.1272 24.5067 14.2948 24.5067H14.8534C15.1327 24.4801 15.3841 24.2401 15.412 23.9734L15.4679 23.7067C15.4679 23.5334 15.5517 23.3734 15.6773 23.2401C15.817 23.1067 15.9567 23.0267 16.0963 22.9734L16.2639 22.9067C16.5013 22.8134 16.6829 22.6134 16.7666 22.3734L16.8504 22.0534C16.9203 21.7868 17.0599 21.5201 17.2694 21.3467L17.2973 21.3201C17.4649 21.1867 17.4929 20.9201 17.3811 20.7334L17.3392 20.6401C17.2415 20.5067 17.2275 20.3067 17.2973 20.1334C17.3672 19.9467 17.437 19.7867 17.5487 19.6267L17.6884 19.4401C17.7442 19.3334 17.7442 19.1734 17.6604 19.0801C17.5767 18.9734 17.5208 18.8401 17.5208 18.7067L17.4929 18.5201V18.0667C17.5208 17.9334 17.4929 17.7601 17.451 17.6267L17.3951 17.4667L17.3811 17.4267ZM15.3841 16.4134V16.3734C15.3841 16.2401 15.3003 16.1601 15.1885 16.1601H14.8254C14.6858 16.1867 14.5461 16.1867 14.4344 16.1601H13.806C13.4848 16.1601 13.1775 16.1067 12.8703 16.0267L12.5351 15.9467L12.2558 15.8667L11.6273 15.6667C11.2922 15.5734 11.0408 15.3601 10.8872 15.0667L10.8173 14.9334C10.7196 14.7334 10.5101 14.6267 10.3006 14.6667C10.0632 14.6667 9.82579 14.6667 9.60234 14.5601L9.43475 14.4934C9.11355 14.3601 8.87613 14.0934 8.87613 13.7334L8.82027 13.3734C8.77837 13.1867 8.65269 13.0134 8.4851 12.9467C8.28958 12.8667 8.10803 12.7601 7.92648 12.6401L7.85665 12.6001C7.64717 12.4401 7.46562 12.2267 7.36786 11.9734L7.33993 11.8934C7.2701 11.6801 7.25613 11.4534 7.312 11.2267L7.33993 11.1467C7.39579 10.9734 7.40975 10.8001 7.40975 10.6134C7.40975 10.4534 7.33993 10.2934 7.21424 10.1734L7.01872 10.0001C6.79527 9.82675 6.65562 9.57341 6.64165 9.29342C6.61372 9.00008 6.61372 8.72008 6.66958 8.44008V8.40008V8.36008C6.66958 8.20008 6.52993 8.09342 6.39027 8.09342H6.34837C6.16682 8.09342 6.0132 8.20008 5.92941 8.36008C5.85958 8.54675 5.74786 8.69341 5.62217 8.84008L5.56631 8.90675L5.287 9.17342L5.14734 9.30675C5.00768 9.44008 4.92389 9.64008 4.89596 9.84008C4.86803 10.0401 4.81217 10.2401 4.72837 10.4267L4.70044 10.4934C4.63062 10.6534 4.51889 10.8001 4.37924 10.8934C4.23958 11.0001 4.14182 11.1601 4.14182 11.3201L4.11389 11.9334C4.11389 12.2001 4.072 12.4667 3.97424 12.7334L3.94631 12.8401C3.87648 13.0134 3.94631 13.2001 4.11389 13.2801L4.70044 13.5201L4.75631 13.5467C4.7982 13.5467 4.81217 13.5734 4.82613 13.6134C4.86803 13.6667 4.82613 13.7467 4.78424 13.7467L4.64458 13.8134C4.56079 13.8401 4.50493 13.9201 4.477 14.0134L4.44906 14.1467V14.1734L4.30941 14.9201C4.28148 15.0267 4.28148 15.1467 4.28148 15.2667C4.28148 15.3734 4.35131 15.4667 4.44906 15.5067L4.75631 15.6401C4.89596 15.7201 5.06355 15.8134 5.17527 15.9067L5.31493 16.0134C5.35682 16.0667 5.42665 16.1201 5.48251 16.1467L5.53837 16.2001C5.63613 16.2801 5.70596 16.3867 5.73389 16.5067L5.87355 17.1067C5.87355 17.2667 6.0132 17.4001 6.15286 17.4401L6.37631 17.5067C6.37631 17.5067 6.4182 17.5067 6.44613 17.5334L6.72544 17.6134C6.94889 17.6801 7.14441 17.8001 7.312 17.9601C7.47958 18.0934 7.64717 18.2667 7.78682 18.4534L7.84268 18.5067C7.95441 18.6401 8.122 18.7067 8.28958 18.6667C8.45717 18.6267 8.63872 18.6134 8.82027 18.6134H9.02975C9.16941 18.6134 9.35096 18.6534 9.50458 18.7467C9.64424 18.8267 9.82579 18.8801 9.99337 18.9467H10.0353C10.2029 19.0134 10.3844 18.9867 10.5241 18.8934C10.6637 18.7867 10.8453 18.7334 11.0268 18.7334L11.6832 18.7734C11.8229 18.7734 11.9625 18.7467 12.0323 18.6401H12.0603L12.2977 18.4267L12.3675 18.3601C12.4792 18.2267 12.6468 18.1734 12.8144 18.1601H13.4429C13.6104 18.1601 13.7641 18.0267 13.8339 17.8934C13.9037 17.7601 14.0434 17.6534 14.211 17.6267L14.4903 17.5734C14.602 17.5734 14.6998 17.4801 14.7416 17.3601C14.7835 17.2267 14.8534 17.1201 14.9511 17.0401L15.1746 16.8267C15.3142 16.6934 15.3841 16.5601 15.412 16.4001L15.3841 16.4134Z" fill="black" fill-opacity="0.5"/>
</g>
<defs>
<clipPath id="clip0">
<rect width="33.5172" height="32" fill="white" transform="translate(0.482788)"/>
</clipPath>
</defs>
</svg>
