<svg width="128" height="128" viewBox="0 0 128 128" fill="none" xmlns="http://www.w3.org/2000/svg">
<path d="M87.4143 4.58575C87.2285 4.40004 87.008 4.25272 86.7654 4.15222C86.5227 4.05171 86.2626 3.99999 86 4H30C26.2883 4.00423 22.7298 5.48059 20.1052 8.10518C17.4806 10.7298 16.0042 14.2883 16 18V110C16.0042 113.712 17.4806 117.27 20.1052 119.895C22.7298 122.519 26.2883 123.996 30 124H98C101.712 123.996 105.27 122.519 107.895 119.895C110.519 117.27 111.996 113.712 112 110V30C112 29.7374 111.948 29.4773 111.848 29.2346C111.747 28.992 111.6 28.7715 111.414 28.5858L87.4143 4.58575ZM88 10.8282L105.172 28H98C95.3487 27.997 92.8069 26.9425 90.9322 25.0678C89.0575 23.1931 88.003 20.6513 88 18V10.8282ZM30 8H84V18C84.0042 21.7118 85.4805 25.2703 88.1051 27.8949C90.7297 30.5195 94.2882 31.9958 98 32H108V88H20V18C20.003 15.3487 21.0575 12.8069 22.9322 10.9322C24.8069 9.0575 27.3487 8.00298 30 8ZM98 120H30C27.3487 119.997 24.8069 118.942 22.9322 117.068C21.0575 115.193 20.003 112.651 20 110V92H108V110C107.997 112.651 106.942 115.193 105.068 117.068C103.193 118.942 100.651 119.997 98 120Z" fill="black"/>
<path d="M64 100H68C68.5304 100 69.0391 99.7893 69.4142 99.4142C69.7893 99.0391 70 98.5304 70 98C70 97.4696 69.7893 96.9609 69.4142 96.5858C69.0391 96.2107 68.5304 96 68 96H64C62.4087 96 60.8826 96.6321 59.7574 97.7574C58.6321 98.8826 58 100.409 58 102C58 103.591 58.6321 105.117 59.7574 106.243C60.8826 107.368 62.4087 108 64 108C64.5304 108 65.0391 108.211 65.4142 108.586C65.7893 108.961 66 109.47 66 110C66 110.53 65.7893 111.039 65.4142 111.414C65.0391 111.789 64.5304 112 64 112H60C59.4696 112 58.9609 112.211 58.5858 112.586C58.2107 112.961 58 113.47 58 114C58 114.53 58.2107 115.039 58.5858 115.414C58.9609 115.789 59.4696 116 60 116H64C65.5913 116 67.1174 115.368 68.2426 114.243C69.3679 113.117 70 111.591 70 110C70 108.409 69.3679 106.883 68.2426 105.757C67.1174 104.632 65.5913 104 64 104C63.4696 104 62.9609 103.789 62.5858 103.414C62.2107 103.039 62 102.53 62 102C62 101.47 62.2107 100.961 62.5858 100.586C62.9609 100.211 63.4696 100 64 100Z" fill="black"/>
<path d="M80 100H84C84.5304 100 85.0391 99.7893 85.4142 99.4142C85.7893 99.0391 86 98.5304 86 98C86 97.4696 85.7893 96.9609 85.4142 96.5858C85.0391 96.2107 84.5304 96 84 96H80C78.4087 96 76.8826 96.6321 75.7574 97.7574C74.6321 98.8826 74 100.409 74 102C74 103.591 74.6321 105.117 75.7574 106.243C76.8826 107.368 78.4087 108 80 108C80.5304 108 81.0391 108.211 81.4142 108.586C81.7893 108.961 82 109.47 82 110C82 110.53 81.7893 111.039 81.4142 111.414C81.0391 111.789 80.5304 112 80 112H76C75.4696 112 74.9609 112.211 74.5858 112.586C74.2107 112.961 74 113.47 74 114C74 114.53 74.2107 115.039 74.5858 115.414C74.9609 115.789 75.4696 116 76 116H80C81.5913 116 83.1174 115.368 84.2426 114.243C85.3679 113.117 86 111.591 86 110C86 108.409 85.3679 106.883 84.2426 105.757C83.1174 104.632 81.5913 104 80 104C79.4696 104 78.9609 103.789 78.5858 103.414C78.2107 103.039 78 102.53 78 102C78 101.47 78.2107 100.961 78.5858 100.586C78.9609 100.211 79.4696 100 80 100Z" fill="black"/>
<path d="M50 100C50.3974 100.002 50.7894 100.092 51.1475 100.265C51.6273 100.491 52.1773 100.517 52.6765 100.337C53.1757 100.158 53.5831 99.7876 53.8092 99.3077C54.0353 98.8279 54.0616 98.2779 53.8821 97.7787C53.7027 97.2795 53.3323 96.8721 52.8525 96.646C51.9614 96.2215 50.987 96.0008 50 96C45.5887 96 42 100.486 42 106C42 111.514 45.5887 116 50 116C50.987 115.999 51.9614 115.778 52.8525 115.354C53.0901 115.242 53.3033 115.084 53.48 114.89C53.6566 114.696 53.7933 114.468 53.8821 114.221C53.971 113.974 54.0103 113.712 53.9978 113.45C53.9853 113.187 53.9212 112.93 53.8092 112.692C53.6973 112.455 53.5396 112.241 53.3453 112.065C53.1509 111.888 52.9237 111.751 52.6765 111.663C52.4294 111.574 52.1671 111.534 51.9048 111.547C51.6424 111.559 51.3851 111.624 51.1475 111.735C50.7894 111.908 50.3974 111.998 50 112C47.8317 112 46 109.252 46 106C46 102.748 47.8317 100 50 100Z" fill="black"/>
<path d="M64 52C65.1046 52 66 51.1046 66 50C66 48.8954 65.1046 48 64 48C62.8954 48 62 48.8954 62 50C62 51.1046 62.8954 52 64 52Z" fill="black"/>
<path d="M64 60C65.1046 60 66 59.1046 66 58C66 56.8954 65.1046 56 64 56C62.8954 56 62 56.8954 62 58C62 59.1046 62.8954 60 64 60Z" fill="black"/>
<path d="M38 56C38.5303 56.0006 39.0386 56.2115 39.4136 56.5864C39.7885 56.9614 39.9994 57.4697 40 58V66C40.0018 67.5907 40.6345 69.1158 41.7593 70.2407C42.8842 71.3655 44.4092 71.9982 46 72C46.5304 72 47.0391 71.7893 47.4142 71.4142C47.7893 71.0391 48 70.5304 48 70C48 69.4696 47.7893 68.9609 47.4142 68.5858C47.0391 68.2107 46.5304 68 46 68C45.4697 67.9994 44.9614 67.7885 44.5864 67.4136C44.2115 67.0386 44.0006 66.5303 44 66V58C44.0014 56.5232 43.4558 55.0983 42.4685 54C43.4558 52.9017 44.0014 51.4768 44 50V42C44.0006 41.4697 44.2115 40.9614 44.5864 40.5864C44.9614 40.2115 45.4697 40.0006 46 40C46.5304 40 47.0391 39.7893 47.4142 39.4142C47.7893 39.0391 48 38.5304 48 38C48 37.4696 47.7893 36.9609 47.4142 36.5858C47.0391 36.2107 46.5304 36 46 36C44.4092 36.0018 42.8842 36.6345 41.7593 37.7593C40.6345 38.8842 40.0018 40.4092 40 42V50C39.9994 50.5303 39.7885 51.0386 39.4136 51.4136C39.0386 51.7885 38.5303 51.9994 38 52C37.4696 52 36.9609 52.2107 36.5858 52.5858C36.2107 52.9609 36 53.4696 36 54C36 54.5304 36.2107 55.0391 36.5858 55.4142C36.9609 55.7893 37.4696 56 38 56Z" fill="black"/>
<path d="M84 66C83.9994 66.5303 83.7885 67.0386 83.4136 67.4136C83.0386 67.7885 82.5303 67.9994 82 68C81.4696 68 80.9609 68.2107 80.5858 68.5858C80.2107 68.9609 80 69.4696 80 70C80 70.5304 80.2107 71.0391 80.5858 71.4142C80.9609 71.7893 81.4696 72 82 72C83.5908 71.9982 85.1158 71.3655 86.2407 70.2407C87.3655 69.1158 87.9982 67.5907 88 66V58C88.0006 57.4697 88.2115 56.9614 88.5864 56.5864C88.9614 56.2115 89.4697 56.0006 90 56C90.5304 56 91.0391 55.7893 91.4142 55.4142C91.7893 55.0391 92 54.5304 92 54C92 53.4696 91.7893 52.9609 91.4142 52.5858C91.0391 52.2107 90.5304 52 90 52C89.4697 51.9994 88.9614 51.7885 88.5864 51.4136C88.2115 51.0386 88.0006 50.5303 88 50V42C87.9982 40.4092 87.3655 38.8842 86.2407 37.7593C85.1158 36.6345 83.5908 36.0018 82 36C81.4696 36 80.9609 36.2107 80.5858 36.5858C80.2107 36.9609 80 37.4696 80 38C80 38.5304 80.2107 39.0391 80.5858 39.4142C80.9609 39.7893 81.4696 40 82 40C82.5303 40.0006 83.0386 40.2115 83.4136 40.5864C83.7885 40.9614 83.9994 41.4697 84 42V50C83.9986 51.4768 84.5442 52.9017 85.5315 54C84.5442 55.0983 83.9986 56.5232 84 58V66Z" fill="black"/>
</svg>
