<svg width="35" height="32" viewBox="0 0 35 32" fill="none" xmlns="http://www.w3.org/2000/svg">
<g clip-path="url(#clip0)">
<path d="M17.4138 0.666748C8.15463 0.666748 0.655151 7.70675 0.655151 16.3894C0.655151 23.3374 5.4565 29.2294 12.1139 31.3067C12.9518 31.4547 13.259 30.9681 13.259 30.5507C13.259 30.1774 13.2451 29.1881 13.2381 27.8774C8.57639 28.8254 7.59322 25.7681 7.59322 25.7681C6.8307 23.9534 5.72882 23.4681 5.72882 23.4681C4.21077 22.4934 5.84613 22.5134 5.84613 22.5134C7.52898 22.6227 8.413 24.1334 8.413 24.1334C9.90731 26.5374 12.3359 25.8427 13.2939 25.4414C13.4448 24.4241 13.8763 23.7321 14.3553 23.3387C10.6335 22.9454 6.72177 21.5934 6.72177 15.5694C6.72177 13.8534 7.37117 12.4507 8.44651 11.3507C8.25798 10.9534 7.69238 9.35475 8.59315 7.18941C8.59315 7.18941 9.99669 6.76808 13.2018 8.80141C14.5425 8.45208 15.9669 8.27875 17.3914 8.27075C18.8159 8.27875 20.2404 8.45208 21.5811 8.80141C24.7652 6.76808 26.1688 7.18941 26.1688 7.18941C27.0695 9.35475 26.5039 10.9534 26.3363 11.3507C27.4047 12.4507 28.0541 13.8534 28.0541 15.5694C28.0541 21.6094 24.1368 22.9387 20.408 23.3254C20.9945 23.7974 21.5392 24.7614 21.5392 26.2347C21.5392 28.3387 21.5182 30.0294 21.5182 30.5401C21.5182 30.9521 21.8115 31.4441 22.6704 31.2867C29.3752 29.2227 34.1724 23.3267 34.1724 16.3894C34.1724 7.70675 26.6687 0.666748 17.4138 0.666748Z" fill="black" fill-opacity="0.5"/>
</g>
<defs>
<clipPath id="clip0">
<rect width="33.5172" height="32" fill="white" transform="translate(0.655151)"/>
</clipPath>
</defs>
</svg>
