<svg width="128" height="128" viewBox="0 0 128 128" fill="none" xmlns="http://www.w3.org/2000/svg">
<path d="M87.4143 4.58575C87.2285 4.40004 87.008 4.25272 86.7654 4.15222C86.5227 4.05171 86.2626 3.99999 86 4H30C26.2883 4.00423 22.7298 5.48059 20.1052 8.10518C17.4806 10.7298 16.0042 14.2883 16 18V110C16.0042 113.712 17.4806 117.27 20.1052 119.895C22.7298 122.519 26.2883 123.996 30 124H98C101.712 123.996 105.27 122.519 107.895 119.895C110.519 117.27 111.996 113.712 112 110V30C112 29.7374 111.948 29.4773 111.848 29.2346C111.747 28.992 111.6 28.7715 111.414 28.5858L87.4143 4.58575ZM88 10.8282L105.172 28H98C95.3487 27.997 92.8069 26.9425 90.9322 25.0678C89.0575 23.1931 88.003 20.6513 88 18V10.8282ZM30 8H84V18C84.0042 21.7117 85.4806 25.2702 88.1052 27.8948C90.7298 30.5194 94.2883 31.9958 98 32H108V88H20V18C20.003 15.3487 21.0575 12.8069 22.9322 10.9322C24.8069 9.0575 27.3487 8.00298 30 8ZM98 120H30C27.3487 119.997 24.8069 118.942 22.9322 117.068C21.0575 115.193 20.003 112.651 20 110V92H108V110C107.997 112.651 106.942 115.193 105.068 117.068C103.193 118.942 100.651 119.997 98 120Z" fill="black"/>
<path d="M42 96C41.4696 96 40.9609 96.2107 40.5858 96.5858C40.2107 96.9609 40 97.4696 40 98V104H36V98C36 97.4696 35.7893 96.9609 35.4142 96.5858C35.0391 96.2107 34.5304 96 34 96C33.4696 96 32.9609 96.2107 32.5858 96.5858C32.2107 96.9609 32 97.4696 32 98V114C32 114.53 32.2107 115.039 32.5858 115.414C32.9609 115.789 33.4696 116 34 116C34.5304 116 35.0391 115.789 35.4142 115.414C35.7893 115.039 36 114.53 36 114V108H40V114C40 114.53 40.2107 115.039 40.5858 115.414C40.9609 115.789 41.4696 116 42 116C42.5304 116 43.0391 115.789 43.4142 115.414C43.7893 115.039 44 114.53 44 114V98C44 97.4696 43.7893 96.9609 43.4142 96.5858C43.0391 96.2107 42.5304 96 42 96Z" fill="black"/>
<path d="M58 96H50C49.4696 96 48.9609 96.2107 48.5858 96.5858C48.2107 96.9609 48 97.4696 48 98C48 98.5304 48.2107 99.0391 48.5858 99.4142C48.9609 99.7893 49.4696 100 50 100H52V114C52 114.53 52.2107 115.039 52.5858 115.414C52.9609 115.789 53.4696 116 54 116C54.5304 116 55.0391 115.789 55.4142 115.414C55.7893 115.039 56 114.53 56 114V100H58C58.5304 100 59.0391 99.7893 59.4142 99.4142C59.7893 99.0391 60 98.5304 60 98C60 97.4696 59.7893 96.9609 59.4142 96.5858C59.0391 96.2107 58.5304 96 58 96Z" fill="black"/>
<path d="M78.4595 96.0535C78.021 95.95 77.5605 95.9976 77.1524 96.1885C76.7444 96.3794 76.4127 96.7026 76.2113 97.1055L72 105.528L67.7887 97.1055C67.5872 96.7026 67.2556 96.3795 66.8475 96.1886C66.4395 95.9977 65.9789 95.9501 65.5404 96.0536C65.102 96.1572 64.7113 96.4057 64.4317 96.7589C64.1522 97.1122 64 97.5495 64 98V114C64 114.53 64.2107 115.039 64.5858 115.414C64.9609 115.789 65.4696 116 66 116C66.5304 116 67.0391 115.789 67.4142 115.414C67.7893 115.039 68 114.53 68 114V106.472L70.2113 110.894C70.3774 111.227 70.6327 111.506 70.9486 111.701C71.2646 111.896 71.6286 112 72 112C72.3714 112 72.7354 111.896 73.0514 111.701C73.3673 111.506 73.6226 111.227 73.7887 110.894L76 106.472V114C76 114.53 76.2107 115.039 76.5858 115.414C76.9609 115.789 77.4696 116 78 116C78.5304 116 79.0391 115.789 79.4142 115.414C79.7893 115.039 80 114.53 80 114V98C80 97.5495 79.8479 97.1121 79.5683 96.7588C79.2887 96.4055 78.898 96.157 78.4595 96.0535Z" fill="black"/>
<path d="M94 112H88V98C88 97.4696 87.7893 96.9609 87.4142 96.5858C87.0391 96.2107 86.5304 96 86 96C85.4696 96 84.9609 96.2107 84.5858 96.5858C84.2107 96.9609 84 97.4696 84 98V114C84 114.53 84.2107 115.039 84.5858 115.414C84.9609 115.789 85.4696 116 86 116H94C94.5304 116 95.0391 115.789 95.4142 115.414C95.7893 115.039 96 114.53 96 114C96 113.47 95.7893 112.961 95.4142 112.586C95.0391 112.211 94.5304 112 94 112Z" fill="black"/>
<path d="M48.5858 65.4143C48.9608 65.7894 49.4696 66.0001 50 66.0001C50.5305 66.0001 51.0392 65.7894 51.4143 65.4143C51.7893 65.0392 52.0001 64.5305 52.0001 64.0001C52.0001 63.4696 51.7893 62.9609 51.4143 62.5858L40.8283 52.0001L51.4143 41.4143C51.7893 41.0392 52.0001 40.5305 52.0001 40.0001C52.0001 39.4696 51.7893 38.9609 51.4143 38.5858C51.0392 38.2107 50.5305 38 50 38C49.4696 38 48.9608 38.2107 48.5858 38.5858L36.5858 50.5858C36.4 50.7715 36.2527 50.992 36.1522 51.2347C36.0517 51.4773 35.9999 51.7374 35.9999 52.0001C35.9999 52.2627 36.0517 52.5228 36.1522 52.7654C36.2527 53.0081 36.4 53.2286 36.5858 53.4143L48.5858 65.4143Z" fill="black"/>
<path d="M76.5858 65.4143C76.7715 65.6 76.992 65.7474 77.2346 65.8479C77.4773 65.9484 77.7374 66.0001 78 66.0001C78.2627 66.0001 78.5227 65.9484 78.7654 65.8479C79.0081 65.7474 79.2285 65.6 79.4143 65.4143L91.4143 53.4143C91.6 53.2286 91.7473 53.0081 91.8478 52.7654C91.9484 52.5228 92.0001 52.2627 92.0001 52.0001C92.0001 51.7374 91.9484 51.4773 91.8478 51.2347C91.7473 50.992 91.6 50.7715 91.4143 50.5858L79.4143 38.5858C79.0392 38.2107 78.5305 38 78 38C77.4696 38 76.9608 38.2107 76.5858 38.5858C76.2107 38.9609 76 39.4696 76 40.0001C76 40.5305 76.2107 41.0392 76.5858 41.4143L87.1718 52.0001L76.5858 62.5858C76.4 62.7715 76.2527 62.992 76.1522 63.2347C76.0517 63.4773 75.9999 63.7374 75.9999 64.0001C75.9999 64.2627 76.0517 64.5228 76.1522 64.7654C76.2527 65.0081 76.4 65.2286 76.5858 65.4143Z" fill="black"/>
<path d="M57.3675 71.8973C57.6166 71.9806 57.8798 72.014 58.1418 71.9956C58.4039 71.9771 58.6597 71.9071 58.8947 71.7896C59.1297 71.6722 59.3392 71.5095 59.5112 71.3109C59.6833 71.1124 59.8144 70.8818 59.8973 70.6325L71.8973 34.6325C71.9833 34.3826 72.019 34.1182 72.0022 33.8544C71.9854 33.5906 71.9165 33.3328 71.7995 33.0958C71.6825 32.8588 71.5196 32.6474 71.3204 32.4738C71.1212 32.3001 70.8895 32.1676 70.6388 32.084C70.388 32.0005 70.1232 31.9674 69.8596 31.9868C69.596 32.0061 69.3389 32.0776 69.1031 32.1969C68.8673 32.3163 68.6575 32.4812 68.4858 32.6821C68.3141 32.883 68.1839 33.116 68.1028 33.3675L56.1028 69.3675C55.935 69.8707 55.9741 70.4199 56.2112 70.8943C56.4484 71.3687 56.8643 71.7295 57.3675 71.8973Z" fill="black"/>
</svg>
