<svg width="35" height="32" viewBox="0 0 35 32" fill="none" xmlns="http://www.w3.org/2000/svg">
<g clip-path="url(#clip0)">
<path d="M34.312 9.40809C34.2335 7.7078 33.9455 6.53888 33.533 5.52598C33.1074 4.45082 32.4526 3.48823 31.5948 2.68802C30.7566 1.87537 29.7417 1.2439 28.6287 0.843915C27.5616 0.450039 26.3436 0.175083 24.5627 0.100117C22.7685 0.0188025 22.199 0 17.6484 0C13.0978 0 12.5282 0.0188025 10.7406 0.0937683C8.95973 0.168734 7.73538 0.443934 6.67472 0.837566C5.54832 1.2439 4.54009 1.86902 3.70195 2.68802C2.85076 3.48823 2.1896 4.45717 1.7704 5.51988C1.35785 6.53888 1.06986 7.70146 0.991339 9.40174C0.906169 11.1147 0.886475 11.6585 0.886475 16.0031C0.886475 20.3477 0.906169 20.8915 0.984689 22.5982C1.06321 24.2984 1.35146 25.4674 1.76401 26.4803C2.1896 27.5554 2.85076 28.518 3.70195 29.3182C4.54009 30.1309 5.55497 30.7624 6.66807 31.1623C7.73538 31.5562 8.95308 31.8312 10.7342 31.9061C12.5215 31.9813 13.0914 31.9999 17.642 31.9999C22.1926 31.9999 22.7621 31.9813 24.5497 31.9061C26.3306 31.8312 27.5549 31.5562 28.6156 31.1623C30.8681 30.3309 32.649 28.6306 33.5199 26.4803C33.9322 25.4613 34.2205 24.2984 34.299 22.5982C34.3775 20.8915 34.3972 20.3477 34.3972 16.0031C34.3972 11.6585 34.3906 11.1147 34.312 9.40809ZM31.2937 22.4731C31.2216 24.0359 30.9467 24.8799 30.7175 25.4425C30.1543 26.8365 28.9954 27.943 27.5353 28.4807C26.946 28.6995 26.0556 28.962 24.4251 29.0306C22.6573 29.1058 22.1271 29.1243 17.655 29.1243C13.1829 29.1243 12.6461 29.1058 10.8846 29.0306C9.24772 28.962 8.3638 28.6995 7.77451 28.4807C7.04788 28.2243 6.38647 27.8179 5.84962 27.2866C5.29307 26.7677 4.86747 26.1426 4.59892 25.4488C4.36975 24.8862 4.0948 24.0359 4.02293 22.4795C3.94416 20.7917 3.92472 20.2852 3.92472 16.0156C3.92472 11.7459 3.94416 11.2334 4.02293 9.55192C4.0948 7.98911 4.36975 7.14519 4.59892 6.58258C4.86747 5.8886 5.29307 5.25737 5.85627 4.74458C6.39951 4.21323 7.05427 3.8069 7.78116 3.55074C8.37045 3.33195 9.26102 3.06945 10.8913 3.00059C12.6591 2.92562 13.1896 2.90682 17.6614 2.90682C22.1401 2.90682 22.6703 2.92562 24.4318 3.00059C26.0687 3.06945 26.9526 3.33195 27.5419 3.55074C28.2685 3.8069 28.9299 4.21323 29.4668 4.74458C30.0233 5.26348 30.4489 5.8886 30.7175 6.58258C30.9467 7.14519 31.2216 7.99521 31.2937 9.55192C31.3723 11.2397 31.392 11.7459 31.392 16.0156C31.392 20.2852 31.3723 20.7853 31.2937 22.4731Z" fill="black" fill-opacity="0.5"/>
<path d="M17.6484 7.78271C12.895 7.78271 9.03833 11.4646 9.03833 16.0031C9.03833 20.5416 12.895 24.2234 17.6484 24.2234C22.4021 24.2234 26.2586 20.5416 26.2586 16.0031C26.2586 11.4646 22.4021 7.78271 17.6484 7.78271ZM17.6484 21.3354C14.5647 21.3354 12.0633 18.9475 12.0633 16.0031C12.0633 13.0586 14.5647 10.6707 17.6484 10.6707C20.7325 10.6707 23.2336 13.0586 23.2336 16.0031C23.2336 18.9475 20.7325 21.3354 17.6484 21.3354Z" fill="black" fill-opacity="0.5"/>
<path d="M28.6093 7.45765C28.6093 8.51743 27.7092 9.37673 26.5989 9.37673C25.4889 9.37673 24.5889 8.51743 24.5889 7.45765C24.5889 6.39763 25.4889 5.53857 26.5989 5.53857C27.7092 5.53857 28.6093 6.39763 28.6093 7.45765Z" fill="black" fill-opacity="0.5"/>
</g>
<defs>
<clipPath id="clip0">
<rect width="33.5172" height="32" fill="white" transform="translate(0.827637)"/>
</clipPath>
</defs>
</svg>
