<svg width="128" height="128" viewBox="0 0 128 128" fill="none" xmlns="http://www.w3.org/2000/svg">
<path d="M87.4143 4.58575C87.2285 4.40004 87.008 4.25272 86.7654 4.15222C86.5227 4.05171 86.2626 3.99999 86 4H30C26.2882 4.00417 22.7297 5.4805 20.1051 8.10511C17.4805 10.7297 16.0042 14.2882 16 18V110C16.0042 113.712 17.4805 117.27 20.1051 119.895C22.7297 122.519 26.2882 123.996 30 124H98C101.712 123.996 105.27 122.519 107.895 119.895C110.519 117.27 111.996 113.712 112 110V30C112 29.7374 111.948 29.4773 111.848 29.2346C111.747 28.992 111.6 28.7715 111.414 28.5858L87.4143 4.58575ZM88 10.8282L105.172 28H98C95.3487 27.997 92.8069 26.9425 90.9322 25.0678C89.0575 23.1931 88.003 20.6513 88 18V10.8282ZM30 8H84V18C84.0042 21.7118 85.4805 25.2703 88.1051 27.8949C90.7297 30.5195 94.2882 31.9958 98 32H108V88H20V18C20.003 15.3487 21.0575 12.8069 22.9322 10.9322C24.8069 9.0575 27.3487 8.00298 30 8ZM98 120H30C27.3487 119.997 24.8069 118.942 22.9322 117.068C21.0575 115.193 20.003 112.651 20 110V92H108V110C107.997 112.651 106.942 115.193 105.068 117.068C103.193 118.942 100.651 119.997 98 120Z" fill="black"/>
<path d="M60 96C59.4696 96 58.9609 96.2107 58.5858 96.5858C58.2107 96.9609 58 97.4696 58 98V110C58 110.53 57.7893 111.039 57.4142 111.414C57.0391 111.789 56.5304 112 56 112C55.4696 112 54.9609 111.789 54.5858 111.414C54.2107 111.039 54 110.53 54 110C54 109.47 53.7893 108.961 53.4142 108.586C53.0391 108.211 52.5304 108 52 108C51.4696 108 50.9609 108.211 50.5858 108.586C50.2107 108.961 50 109.47 50 110C50 111.591 50.6321 113.117 51.7574 114.243C52.8826 115.368 54.4087 116 56 116C57.5913 116 59.1174 115.368 60.2426 114.243C61.3679 113.117 62 111.591 62 110V98C62 97.4696 61.7893 96.9609 61.4142 96.5858C61.0391 96.2107 60.5304 96 60 96Z" fill="black"/>
<path d="M72 100H76C76.5304 100 77.0391 99.7893 77.4142 99.4142C77.7893 99.0391 78 98.5304 78 98C78 97.4696 77.7893 96.9609 77.4142 96.5858C77.0391 96.2107 76.5304 96 76 96H72C70.4087 96 68.8826 96.6321 67.7574 97.7574C66.6321 98.8826 66 100.409 66 102C66 103.591 66.6321 105.117 67.7574 106.243C68.8826 107.368 70.4087 108 72 108C72.5304 108 73.0391 108.211 73.4142 108.586C73.7893 108.961 74 109.47 74 110C74 110.53 73.7893 111.039 73.4142 111.414C73.0391 111.789 72.5304 112 72 112H68C67.4696 112 66.9609 112.211 66.5858 112.586C66.2107 112.961 66 113.47 66 114C66 114.53 66.2107 115.039 66.5858 115.414C66.9609 115.789 67.4696 116 68 116H72C73.5913 116 75.1174 115.368 76.2426 114.243C77.3679 113.117 78 111.591 78 110C78 108.409 77.3679 106.883 76.2426 105.757C75.1174 104.632 73.5913 104 72 104C71.4696 104 70.9609 103.789 70.5858 103.414C70.2107 103.039 70 102.53 70 102C70 101.47 70.2107 100.961 70.5858 100.586C70.9609 100.211 71.4696 100 72 100Z" fill="black"/>
<path d="M72 56C73.1046 56 74 55.1046 74 54C74 52.8954 73.1046 52 72 52C70.8954 52 70 52.8954 70 54C70 55.1046 70.8954 56 72 56Z" fill="black"/>
<path d="M56 56C57.1046 56 58 55.1046 58 54C58 52.8954 57.1046 52 56 52C54.8954 52 54 52.8954 54 54C54 55.1046 54.8954 56 56 56Z" fill="black"/>
<path d="M64 56C65.1046 56 66 55.1046 66 54C66 52.8954 65.1046 52 64 52C62.8954 52 62 52.8954 62 54C62 55.1046 62.8954 56 64 56Z" fill="black"/>
<path d="M38 56C38.5303 56.0006 39.0386 56.2115 39.4136 56.5864C39.7885 56.9614 39.9994 57.4697 40 58V66C40.0019 67.5907 40.6346 69.1158 41.7594 70.2406C42.8842 71.3654 44.4093 71.9981 46 72C46.5304 72 47.0391 71.7893 47.4142 71.4142C47.7893 71.0391 48 70.5304 48 70C48 69.4696 47.7893 68.9609 47.4142 68.5858C47.0391 68.2107 46.5304 68 46 68C45.4697 67.9994 44.9614 67.7885 44.5864 67.4136C44.2115 67.0386 44.0006 66.5303 44 66V58C44.0014 56.5232 43.4558 55.0983 42.4685 54C43.4558 52.9017 44.0014 51.4768 44 50V42C44.0006 41.4697 44.2115 40.9614 44.5864 40.5864C44.9614 40.2115 45.4697 40.0006 46 40C46.5304 40 47.0391 39.7893 47.4142 39.4142C47.7893 39.0391 48 38.5304 48 38C48 37.4696 47.7893 36.9609 47.4142 36.5858C47.0391 36.2107 46.5304 36 46 36C44.4093 36.0019 42.8842 36.6346 41.7594 37.7594C40.6346 38.8842 40.0019 40.4093 40 42V50C39.9994 50.5303 39.7885 51.0386 39.4136 51.4136C39.0386 51.7885 38.5303 51.9994 38 52C37.4696 52 36.9609 52.2107 36.5858 52.5858C36.2107 52.9609 36 53.4696 36 54C36 54.5304 36.2107 55.0391 36.5858 55.4142C36.9609 55.7893 37.4696 56 38 56Z" fill="black"/>
<path d="M84 66C83.9994 66.5303 83.7885 67.0386 83.4136 67.4136C83.0386 67.7885 82.5303 67.9994 82 68C81.4696 68 80.9609 68.2107 80.5858 68.5858C80.2107 68.9609 80 69.4696 80 70C80 70.5304 80.2107 71.0391 80.5858 71.4142C80.9609 71.7893 81.4696 72 82 72C83.5907 71.9981 85.1158 71.3654 86.2406 70.2406C87.3654 69.1158 87.9981 67.5907 88 66V58C88.0006 57.4697 88.2115 56.9614 88.5864 56.5864C88.9614 56.2115 89.4697 56.0006 90 56C90.5304 56 91.0391 55.7893 91.4142 55.4142C91.7893 55.0391 92 54.5304 92 54C92 53.4696 91.7893 52.9609 91.4142 52.5858C91.0391 52.2107 90.5304 52 90 52C89.4697 51.9994 88.9614 51.7885 88.5864 51.4136C88.2115 51.0386 88.0006 50.5303 88 50V42C87.9981 40.4093 87.3654 38.8842 86.2406 37.7594C85.1158 36.6346 83.5907 36.0019 82 36C81.4696 36 80.9609 36.2107 80.5858 36.5858C80.2107 36.9609 80 37.4696 80 38C80 38.5304 80.2107 39.0391 80.5858 39.4142C80.9609 39.7893 81.4696 40 82 40C82.5303 40.0006 83.0386 40.2115 83.4136 40.5864C83.7885 40.9614 83.9994 41.4697 84 42V50C83.9986 51.4768 84.5442 52.9017 85.5315 54C84.5442 55.0983 83.9986 56.5232 84 58V66Z" fill="black"/>
</svg>
