<svg width="80" height="36" viewBox="0 0 80 36" fill="none" xmlns="http://www.w3.org/2000/svg">
<g clip-path="url(#clip0)">
<path fill-rule="evenodd" clip-rule="evenodd" d="M12.6278 0.405205C11.773 0.694596 9.85668 1.49584 8.36895 2.18565L5.66464 3.44008L6.83146 4.15902C7.47333 4.55472 8.30716 5.35597 8.68483 5.93989C9.06247 6.52339 11.3809 12.0852 13.837 18.2991C16.2934 24.5129 18.7241 30.326 19.239 31.2166C21.1463 34.5173 24.5279 36.4689 27.3281 35.8854C28.9767 35.5421 36.6323 33.3128 37.0461 33.0553C37.2268 32.9431 36.67 32.5316 35.809 32.1411C34.8426 31.7025 33.9956 30.9449 33.5954 30.1602C33.2387 29.4613 30.874 23.6448 28.3403 17.2344C25.5995 10.3001 23.215 4.86459 22.4526 3.81411C20.161 0.656796 16.0734 -0.761422 12.6278 0.405205ZM33.0266 0.792633C31.6375 1.3159 29.6415 2.14077 28.5909 2.62624L26.6804 3.50898L27.8744 4.01768C29.5467 4.73032 30.5072 6.59111 34.5738 16.9978C40.0804 31.0906 40.0316 30.9866 42.1546 33.2037C44.283 35.4268 46.5108 36.3402 48.6983 35.887C50.8998 35.4307 58.0788 33.2514 58.4179 32.9364C58.5992 32.7679 58.2278 32.5139 57.592 32.3726C56.9569 32.2312 56.0796 31.7261 55.6426 31.25C54.9584 30.5047 49.36 17.047 46.0792 8.2617C44.731 4.65238 43.2213 2.55182 41.048 1.26117C38.5383 -0.229491 36.1171 -0.370841 33.0266 0.792633ZM54.3965 0.795782C53.0076 1.31708 51.0228 2.13565 49.9863 2.61482L48.1013 3.48615L49.1725 4.04917C51.0015 5.01067 51.9775 6.66432 54.1424 12.4699C57.824 22.3423 61.3771 30.685 62.5882 32.3005C63.3184 33.275 64.528 34.4196 65.2762 34.8433C67.8224 36.2871 68.8152 36.2713 74.3257 34.6999C79.3382 33.2703 81.0361 32.5501 79.3939 32.5501C78.1455 32.5501 76.5421 31.0335 75.6887 29.0452C75.2613 28.0494 72.9158 22.2139 70.4765 16.0776C68.0369 9.94096 65.579 4.30666 65.0148 3.55702C63.6358 1.72459 61.2255 0.361893 58.8651 0.0799816C57.3619 -0.0995595 56.3512 0.0622624 54.3965 0.795782ZM1.67658 8.14161C0.652373 8.55978 0 9.69764 0 11.0659C0 13.5452 3.47012 14.6141 5.02274 12.6136C6.11923 11.2013 6.03531 10.2567 4.69249 8.89602C3.4981 7.68566 3.06098 7.5766 1.67658 8.14161ZM4.34514 20.1835C1.46755 21.6395 0.259162 23.5727 0.0664423 27.0285C-0.109181 30.1768 0.721923 32.1911 2.96967 34.0688C5.56244 36.2347 10.2989 36.4717 12.7774 34.5594L13.7041 33.8447L10.8067 26.6024C8.56826 21.0068 7.73908 19.335 7.16015 19.2492C6.7483 19.1877 5.48125 19.6082 4.34514 20.1835Z" fill="#333333"/>
</g>
<defs>
<clipPath id="clip0">
<rect width="80" height="36" fill="white"/>
</clipPath>
</defs>
</svg>
